<svg width="32" height="32" viewBox="0 0 32 32" fill="none" xmlns="http://www.w3.org/2000/svg">
<path d="M14 8L27 8M14 8C14 9.10457 13.1046 10 12 10C10.8954 10 10 9.10457 10 8M14 8C14 6.89543 13.1046 6 12 6C10.8954 6 10 6.89543 10 8M5 8H10M14 24H27M14 24C14 25.1046 13.1046 26 12 26C10.8954 26 10 25.1046 10 24M14 24C14 22.8954 13.1046 22 12 22C10.8954 22 10 22.8954 10 24M5 24L10 24M22 16L27 16M22 16C22 17.1046 21.1046 18 20 18C18.8954 18 18 17.1046 18 16M22 16C22 14.8954 21.1046 14 20 14C18.8954 14 18 14.8954 18 16M5 16H18" stroke="white" stroke-width="1.5" stroke-linecap="round" stroke-linejoin="round"/>
</svg>
