<?xml version="1.0" encoding="UTF-8" standalone="no"?>
<!DOCTYPE svg PUBLIC "-//W3C//DTD SVG 1.1//EN" "http://www.w3.org/Graphics/SVG/1.1/DTD/svg11.dtd">
<svg width="100%" height="100%" viewBox="0 0 48 48" version="1.1" xmlns="http://www.w3.org/2000/svg" xmlns:xlink="http://www.w3.org/1999/xlink" xml:space="preserve" xmlns:serif="http://www.serif.com/" style="fill-rule:evenodd;clip-rule:evenodd;stroke-linejoin:round;stroke-miterlimit:2;">
    <path d="M7,36C6.2,36 5.5,35.7 4.9,35.1C4.3,34.5 4,33.8 4,33L4,15C4,14.2 4.3,13.5 4.9,12.9C5.5,12.3 6.2,12 7,12L41,12C41.8,12 42.5,12.3 43.1,12.9C43.7,13.5 44,14.2 44,15L44,33C44,33.8 43.7,34.5 43.1,35.1C42.5,35.7 41.8,36 41,36L7,36ZM7,33L41,33L41,15L7,15L7,33ZM14.5,30.7L17.5,30.7L17.5,25.5L22.7,25.5L22.7,22.5L17.5,22.5L17.5,17.3L14.5,17.3L14.5,22.5L9.3,22.5L9.3,25.5L14.5,25.5L14.5,30.7ZM29.65,29.8C30.25,29.8 30.775,29.575 31.225,29.125C31.675,28.675 31.9,28.15 31.9,27.55C31.9,26.95 31.675,26.425 31.225,25.975C30.775,25.525 30.25,25.3 29.65,25.3C29.05,25.3 28.525,25.525 28.075,25.975C27.625,26.425 27.4,26.95 27.4,27.55C27.4,28.15 27.625,28.675 28.075,29.125C28.525,29.575 29.05,29.8 29.65,29.8ZM34.15,22.65C34.75,22.65 35.275,22.425 35.725,21.975C36.175,21.525 36.4,21 36.4,20.4C36.4,19.8 36.175,19.275 35.725,18.825C35.275,18.375 34.75,18.15 34.15,18.15C33.55,18.15 33.025,18.375 32.575,18.825C32.125,19.275 31.9,19.8 31.9,20.4C31.9,21 32.125,21.525 32.575,21.975C33.025,22.425 33.55,22.65 34.15,22.65ZM7,33L7,15L7,33Z" style="fill:white;fill-rule:nonzero;"/>
</svg>
