<?xml version="1.0" encoding="UTF-8" standalone="no"?>
<!DOCTYPE svg PUBLIC "-//W3C//DTD SVG 1.1//EN" "http://www.w3.org/Graphics/SVG/1.1/DTD/svg11.dtd">
<svg width="100%" height="100%" viewBox="0 0 48 48" version="1.1" xmlns="http://www.w3.org/2000/svg" xmlns:xlink="http://www.w3.org/1999/xlink" xml:space="preserve" xmlns:serif="http://www.serif.com/" style="fill-rule:evenodd;clip-rule:evenodd;stroke-linejoin:round;stroke-miterlimit:2;">
    <path d="M7,38C6.2,38 5.5,37.692 4.9,37.075C4.3,36.458 4,35.767 4,35L4,13C4,12.2 4.3,11.5 4.9,10.9C5.5,10.3 6.2,10 7,10L41,10C41.8,10 42.5,10.3 43.1,10.9C43.7,11.5 44,12.2 44,13L44,35C44,35.767 43.7,36.458 43.1,37.075C42.5,37.692 41.8,38 41,38L7,38ZM7,35L41,35L41,13L7,13L7,35ZM15,31.75L33,31.75L33,28.75L15,28.75L15,31.75ZM10.15,25.5L13.15,25.5L13.15,22.5L10.15,22.5L10.15,25.5ZM16.35,25.5L19.35,25.5L19.35,22.5L16.35,22.5L16.35,25.5ZM22.5,25.5L25.5,25.5L25.5,22.5L22.5,22.5L22.5,25.5ZM28.7,25.5L31.7,25.5L31.7,22.5L28.7,22.5L28.7,25.5ZM34.85,25.5L37.85,25.5L37.85,22.5L34.85,22.5L34.85,25.5ZM10.15,19.25L13.15,19.25L13.15,16.25L10.15,16.25L10.15,19.25ZM16.35,19.25L19.35,19.25L19.35,16.25L16.35,16.25L16.35,19.25ZM22.5,19.25L25.5,19.25L25.5,16.25L22.5,16.25L22.5,19.25ZM28.7,19.25L31.7,19.25L31.7,16.25L28.7,16.25L28.7,19.25ZM34.85,19.25L37.85,19.25L37.85,16.25L34.85,16.25L34.85,19.25ZM7,35L7,13L7,35Z" style="fill:white;fill-rule:nonzero;"/>
</svg>
