<?xml version="1.0" encoding="UTF-8" standalone="no"?>
<!DOCTYPE svg PUBLIC "-//W3C//DTD SVG 1.1//EN" "http://www.w3.org/Graphics/SVG/1.1/DTD/svg11.dtd">
<svg width="100%" height="100%" viewBox="0 0 480 480" version="1.1" xmlns="http://www.w3.org/2000/svg" xmlns:xlink="http://www.w3.org/1999/xlink" xml:space="preserve" xmlns:serif="http://www.serif.com/" style="fill-rule:evenodd;clip-rule:evenodd;stroke-linecap:round;stroke-linejoin:round;stroke-miterlimit:1.5;">
    <g transform="matrix(1.16606,0,0,1.1335,-40.9124,-30.8033)">
        <g id="outer" transform="matrix(1.49948,0,0,1.2684,-115.355,-25.7843)">
            <path d="M374.854,92.931L374.854,325.726C374.854,353.258 356.474,375.611 333.835,375.611L141.348,375.611C118.709,375.611 100.329,353.258 100.329,325.726L100.329,92.931C100.329,65.399 118.709,43.047 141.348,43.047L333.835,43.047C356.474,43.047 374.854,65.399 374.854,92.931ZM369.134,92.931C369.134,69.238 353.317,50.002 333.835,50.002L141.348,50.002C121.866,50.002 106.048,69.238 106.048,92.931L106.048,325.726C106.048,349.419 121.866,368.655 141.348,368.655L333.835,368.655C353.317,368.655 369.134,349.419 369.134,325.726L369.134,92.931Z" style="fill:white;"/>
        </g>
        <g id="inner" transform="matrix(0.999061,0,0,0.955616,0.507862,15.8011)">
            <path d="M374.854,102.096C374.854,69.506 350.252,43.047 319.949,43.047L155.234,43.047C124.931,43.047 100.329,69.506 100.329,102.096L100.329,316.561C100.329,349.152 124.931,375.611 155.234,375.611L319.949,375.611C350.252,375.611 374.854,349.152 374.854,316.561L374.854,102.096Z" style="fill:none;stroke:white;stroke-width:8.89px;"/>
        </g>
        <path d="M382.109,27.175C413.293,30.278 446.73,58.568 446.73,90.563L446.73,388.895C446.73,422.974 419.062,450.641 384.983,450.641L96.833,450.641C62.754,450.641 35.086,422.974 35.086,388.895L35.086,388.111L37.525,386.236L98.89,319.339C98.89,319.339 99.529,318.507 100.743,316.935L100.743,319.888C100.743,350.162 125.322,374.741 155.596,374.741L320.156,374.741C350.431,374.741 375.01,350.162 375.01,319.888L375.01,101.331C375.01,73.15 314.32,56.937 314.32,56.937L364.033,31.356C364.033,31.356 374.759,28.925 382.109,27.175Z" style="fill:white;"/>
    </g>
</svg>
