<?xml version="1.0" encoding="UTF-8" standalone="no"?>
<!DOCTYPE svg PUBLIC "-//W3C//DTD SVG 1.1//EN" "http://www.w3.org/Graphics/SVG/1.1/DTD/svg11.dtd">
<svg width="100%" height="100%" viewBox="0 0 48 48" version="1.1" xmlns="http://www.w3.org/2000/svg" xmlns:xlink="http://www.w3.org/1999/xlink" xml:space="preserve" xmlns:serif="http://www.serif.com/" style="fill-rule:evenodd;clip-rule:evenodd;stroke-linejoin:round;stroke-miterlimit:2;">
    <path d="M13,46C12.2,46 11.5,45.7 10.9,45.1C10.3,44.5 10,43.8 10,43L10,5C10,4.2 10.3,3.5 10.9,2.9C11.5,2.3 12.2,2 13,2L35,2C35.8,2 36.5,2.3 37.1,2.9C37.7,3.5 38,4.2 38,5L38,43C38,43.8 37.7,44.5 37.1,45.1C36.5,45.7 35.8,46 35,46L13,46ZM13,38.5L13,43L35,43L35,38.5L13,38.5ZM24.009,42.25C24.436,42.25 24.792,42.105 25.075,41.816C25.358,41.527 25.5,41.169 25.5,40.741C25.5,40.314 25.355,39.958 25.066,39.675C24.777,39.392 24.419,39.25 23.991,39.25C23.564,39.25 23.208,39.395 22.925,39.684C22.642,39.973 22.5,40.331 22.5,40.759C22.5,41.186 22.645,41.542 22.934,41.825C23.223,42.108 23.581,42.25 24.009,42.25ZM13,35.5L35,35.5L35,9.5L13,9.5L13,35.5ZM13,6.5L35,6.5L35,5L13,5L13,6.5ZM13,38.5L13,43L13,38.5ZM13,6.5L13,5L13,6.5Z" style="fill:white;fill-rule:nonzero;"/>
</svg>
