<?xml version="1.0" encoding="UTF-8" standalone="no"?>
<!DOCTYPE svg PUBLIC "-//W3C//DTD SVG 1.1//EN" "http://www.w3.org/Graphics/SVG/1.1/DTD/svg11.dtd">
<svg width="100%" height="100%" viewBox="0 0 12500 2917" version="1.1" xmlns="http://www.w3.org/2000/svg" xmlns:xlink="http://www.w3.org/1999/xlink" xml:space="preserve" xmlns:serif="http://www.serif.com/" style="fill-rule:evenodd;clip-rule:evenodd;stroke-linejoin:round;stroke-miterlimit:2;">
    <g transform="matrix(2.80218,0,0,2.80218,1831.26,-14002.6)">
        <text x="1298px" y="5897px" style="font-family:'TiltWarp-Regular', 'Tilt Warp';font-size:1454.68px;fill:rgb(140,255,152);">av</text>
    </g>
    <g transform="matrix(1.94481,0,0,1.66345,-202.268,-2575.47)">
        <path d="M264.444,3018.02C279.697,3013.82 633.337,2742.81 1059.54,2641.27C1838.09,2455.77 2741.22,2574.6 3491.11,2750.88C3846.97,2834.54 4205.63,2936.07 4572.2,2958.7C5245.67,3000.27 5839.92,2820.16 6450.82,2116.55" style="fill:none;stroke:rgb(255,42,109);stroke-width:129.94px;stroke-linecap:round;stroke-miterlimit:1.5;"/>
    </g>
    <g transform="matrix(2.80218,0,0,2.80218,-3594.27,-14002.6)">
        <text x="1298px" y="5897px" style="font-family:'TiltWarp-Regular', 'Tilt Warp';font-size:1454.68px;fill:rgb(5,185,233);">w<tspan x="2409.38px " y="5897px ">e</tspan></text>
    </g>
    <g transform="matrix(2.80218,0,0,2.80218,6518.97,-14002.6)">
        <text x="1298px" y="5897px" style="font-family:'TiltWarp-Regular', 'Tilt Warp';font-size:1454.68px;fill:rgb(140,255,152);">e</text>
    </g>
</svg>
