<?xml version="1.0" encoding="UTF-8" standalone="no"?>
<!-- Created with Inkscape (http://www.inkscape.org/) -->

<svg
   width="297mm"
   height="210mm"
   viewBox="0 0 1122.5197 793.70081"
   version="1.1"
   id="svg1"
   inkscape:version="1.3 (0e150ed6c4, 2023-07-21)"
   sodipodi:docname="logo.svg"
   xmlns:inkscape="http://www.inkscape.org/namespaces/inkscape"
   xmlns:sodipodi="http://sodipodi.sourceforge.net/DTD/sodipodi-0.dtd"
   xmlns="http://www.w3.org/2000/svg"
   xmlns:svg="http://www.w3.org/2000/svg">
  <sodipodi:namedview
     id="namedview1"
     pagecolor="#505050"
     bordercolor="#ffffff"
     borderopacity="1"
     inkscape:showpageshadow="0"
     inkscape:pageopacity="0"
     inkscape:pagecheckerboard="1"
     inkscape:deskcolor="#505050"
     inkscape:document-units="mm"
     inkscape:zoom="0.61460942"
     inkscape:cx="193.6189"
     inkscape:cy="549.94276"
     inkscape:window-width="1920"
     inkscape:window-height="1080"
     inkscape:window-x="0"
     inkscape:window-y="0"
     inkscape:window-maximized="1"
     inkscape:current-layer="layer3"
     showguides="false" />
  <defs
     id="defs1">
    <inkscape:path-effect
       effect="taper_stroke"
       id="path-effect14"
       is_visible="true"
       lpeversion="1"
       stroke_width="3.27614"
       subpath="1"
       attach_start="0.2 | 0.2"
       end_offset="0.2 | 0.2"
       start_smoothing="0.5 | 0.5"
       end_smoothing="0.5 | 0.5"
       jointype="extrapolated"
       start_shape=""
       end_shape=""
       miter_limit="100" />
    <inkscape:path-effect
       effect="powerstroke"
       id="path-effect12"
       is_visible="true"
       lpeversion="1.3"
       scale_width="3.8461538"
       interpolator_type="CentripetalCatmullRom"
       interpolator_beta="0.33760684"
       start_linecap_type="zerowidth"
       end_linecap_type="zerowidth"
       offset_points="12.5,1.63807"
       linejoin_type="round"
       miter_limit="4"
       not_jump="false"
       sort_points="true"
       message="&lt;b&gt;Ctrl + click&lt;/b&gt; on existing node and move it" />
    <inkscape:path-effect
       effect="fill_between_many"
       method="bsplinespiro"
       autoreverse="false"
       close="false"
       join="false"
       linkedpaths="#path11-5-3,0,1"
       id="path-effect13" />
    <inkscape:path-effect
       effect="fill_between_many"
       method="bsplinespiro"
       autoreverse="false"
       close="false"
       join="false"
       linkedpaths="#path11-5-3,0,1"
       id="path-effect15" />
  </defs>
  <g
     inkscape:groupmode="layer"
     id="layer3"
     inkscape:label="Background">
    <rect
       style="fill:#ffffff;stroke-width:1.67956"
       id="rect1"
       width="1123.7783"
       height="791.06415"
       x="1.1280119"
       y="1.0358419" />
  </g>
  <g
     inkscape:label="Shadow"
     inkscape:groupmode="layer"
     id="layer1"
     transform="translate(-361.61741,-310.346)">
    <text
       xml:space="preserve"
       style="font-size:85.3333px;font-family:'Noto Color Emoji';-inkscape-font-specification:'Noto Color Emoji';text-align:center;text-anchor:middle;fill:#4848b4;fill-opacity:1"
       x="555.72058"
       y="429.91391"
       id="text1-7"><tspan
         sodipodi:role="line"
         id="tspan1-7"
         x="555.72058"
         y="429.91391"
         style="font-style:normal;font-variant:normal;font-weight:normal;font-stretch:normal;font-family:'Tilt Warp';-inkscape-font-specification:'Tilt Warp';fill:#4848b4;fill-opacity:1">Weave</tspan></text>
    <text
       xml:space="preserve"
       style="font-size:85.3333px;font-family:'Noto Color Emoji';-inkscape-font-specification:'Noto Color Emoji';text-align:center;text-anchor:middle;fill:#6c6cc4"
       x="553.84229"
       y="427.2489"
       id="text1"><tspan
         sodipodi:role="line"
         id="tspan1"
         x="553.84229"
         y="427.2489"
         style="font-style:normal;font-variant:normal;font-weight:normal;font-stretch:normal;font-family:'Tilt Warp';-inkscape-font-specification:'Tilt Warp'">Weave</tspan></text>
  </g>
  <g
     inkscape:groupmode="layer"
     id="layer2"
     inkscape:label="Layer 2"
     transform="translate(-105.48118,-27.845266)">
    <text
       xml:space="preserve"
       style="font-size:85.3333px;font-family:'Noto Color Emoji';-inkscape-font-specification:'Noto Color Emoji';text-align:center;text-anchor:middle;fill:#6c6cc4;stroke-width:2.51339;stroke-dasharray:none"
       x="624.95276"
       y="145.54601"
       id="text1-9"><tspan
         sodipodi:role="line"
         id="tspan1-4"
         x="624.95276"
         y="145.54601"
         style="font-style:normal;font-variant:normal;font-weight:normal;font-stretch:normal;font-family:'Tilt Warp';-inkscape-font-specification:'Tilt Warp';stroke-width:2.51339;stroke-dasharray:none"><tspan
   style="fill:#ffffff;stroke:#6c6cc4;stroke-width:2.51339;stroke-dasharray:none;stroke-opacity:1"
   id="tspan2">We</tspan>ave</tspan></text>
    <text
       xml:space="preserve"
       style="font-size:85.3333px;font-family:'Noto Color Emoji';-inkscape-font-specification:'Noto Color Emoji';text-align:center;text-anchor:middle;fill:#6c6cc4;stroke-width:2.51339;stroke-dasharray:none"
       x="625.97467"
       y="231.55591"
       id="text1-9-9"><tspan
         sodipodi:role="line"
         id="tspan1-4-3"
         x="625.97467"
         y="231.55591"
         style="font-style:normal;font-variant:normal;font-weight:normal;font-stretch:normal;font-family:'Tilt Warp';-inkscape-font-specification:'Tilt Warp';stroke-width:2.51339;stroke-dasharray:none"><tspan
           style="fill:#ffffff;stroke:#23a964;stroke-width:2.51339;stroke-dasharray:none;stroke-opacity:1"
           id="tspan2-9">We</tspan><tspan
           style="fill:#23a964;fill-opacity:1"
           id="tspan3">ave</tspan></tspan></text>
  </g>
  <g
     inkscape:groupmode="layer"
     id="layer4"
     inkscape:label="Layer 3" />
  <g
     inkscape:groupmode="layer"
     id="layer5"
     inkscape:label="lines">
    <text
       xml:space="preserve"
       style="font-size:85.3333px;font-family:'Noto Color Emoji';-inkscape-font-specification:'Noto Color Emoji';text-align:center;text-anchor:middle;fill:#6c6cc4;stroke-width:2.51339;stroke-dasharray:none"
       x="274.47491"
       y="423.31128"
       id="text1-9-9-5"
       inkscape:label="ave"><tspan
         sodipodi:role="line"
         id="tspan1-4-3-0"
         x="274.47491"
         y="423.31128"
         style="font-style:normal;font-variant:normal;font-weight:normal;font-stretch:normal;font-family:'Tilt Warp';-inkscape-font-specification:'Tilt Warp';fill:#4d4d4d;fill-opacity:1;stroke-width:2.51339;stroke-dasharray:none">ave</tspan></text>
    <path
       style="fill:none;fill-opacity:1;stroke:#5debba;stroke-width:3.27614;stroke-dasharray:none;stroke-opacity:1"
       id="path11"
       d="m 83.156982,418.28876 c 7.641797,-6.16304 16.905588,-10.37187 26.860068,-12.42682 3.06608,-0.63295 6.20409,-0.9309 9.30611,-1.39635 12.88235,-1.24238 25.85066,-0.47201 38.43683,2.31574 7.81093,1.73005 10.10659,2.69969 17.52164,5.16644 13.28434,4.88685 25.61445,11.59986 38.5421,17.17216 2.72448,1.17436 5.49706,2.25384 8.24559,3.38075 11.07114,4.15017 21.34369,7.28269 33.4631,4.74866 8.09691,-1.693 10.22781,-3.5478 17.35741,-7.39836 3.09437,-2.45948 6.35758,-4.75314 9.28307,-7.37845 7.63018,-6.84726 13.65248,-13.91868 20.0097,-21.79421 8.86801,-10.98596 12.76496,-16.78375 20.99533,-28.27177 1.34005,-1.83079 -1.50289,-3.5567 -2.84295,-1.72592 v 0 c -8.21171,11.46596 -12.00028,17.11106 -20.83732,28.07332 -6.28889,7.80127 -12.04831,14.57266 -19.55898,21.3644 -2.77043,2.50523 -5.85751,4.70222 -8.78625,7.05331 -6.5469,3.5957 -8.58337,5.36699 -16.01701,6.9871 -11.4857,2.50319 -21.17478,-0.58516 -31.67701,-4.50097 -2.70942,-1.11024 -5.44275,-2.17328 -8.12824,-3.33074 -13.04117,-5.6208 -25.47709,-12.39897 -38.8892,-17.30632 -7.6101,-2.52338 -9.99586,-3.52628 -18.01274,-5.29096 -12.98995,-2.85938 -26.37072,-3.63847 -39.65945,-2.33459 -3.23861,0.49386 -6.51583,0.81084 -9.71588,1.48158 -10.434108,2.18699 -20.144108,6.6198 -28.161322,13.08265 -1.808554,1.45888 0.456849,3.78821 2.265404,2.32935 z" />
    <text
       xml:space="preserve"
       style="font-style:normal;font-variant:normal;font-weight:normal;font-stretch:normal;font-size:85.3333px;font-family:'Tilt Warp';-inkscape-font-specification:'Tilt Warp';text-align:center;text-anchor:middle;fill:#23a964;fill-opacity:1;stroke:#23a964;stroke-width:2.51339;stroke-dasharray:none;stroke-opacity:1"
       x="137.92168"
       y="421.62924"
       id="text12"
       inkscape:label="We"><tspan
         sodipodi:role="line"
         id="tspan12"
         x="137.92168"
         y="421.62924"
         style="fill:#676767;fill-opacity:1;stroke:none">We</tspan></text>
  </g>
  <g
     inkscape:groupmode="layer"
     id="layer5-6"
     inkscape:label="lines"
     transform="translate(1.7554134,121.02891)">
    <text
       xml:space="preserve"
       style="font-size:85.3333px;font-family:'Noto Color Emoji';-inkscape-font-specification:'Noto Color Emoji';text-align:center;text-anchor:middle;fill:#6c6cc4;stroke-width:2.51339;stroke-dasharray:none"
       x="274.47491"
       y="423.31128"
       id="text1-9-9-5-1"
       inkscape:label="ave"><tspan
         sodipodi:role="line"
         id="tspan1-4-3-0-1"
         x="274.47491"
         y="423.31128"
         style="font-style:normal;font-variant:normal;font-weight:normal;font-stretch:normal;font-family:'Tilt Warp';-inkscape-font-specification:'Tilt Warp';fill:#4d5e72;fill-opacity:1;stroke-width:2.51339;stroke-dasharray:none">ave</tspan></text>
    <path
       style="fill:none;fill-opacity:1;stroke:#dda5b6;stroke-width:3.27614;stroke-dasharray:none;stroke-opacity:1"
       id="path11-5"
       d="m 83.156982,418.28876 c 7.641797,-6.16304 16.905588,-10.37187 26.860068,-12.42682 3.06608,-0.63295 6.20409,-0.9309 9.30611,-1.39635 12.88235,-1.24238 25.85066,-0.47201 38.43683,2.31574 7.81093,1.73005 10.10659,2.69969 17.52164,5.16644 13.28434,4.88685 25.61445,11.59986 38.5421,17.17216 2.72448,1.17436 5.49706,2.25384 8.24559,3.38075 11.07114,4.15017 21.34369,7.28269 33.4631,4.74866 8.09691,-1.693 10.22781,-3.5478 17.35741,-7.39836 3.09437,-2.45948 6.35758,-4.75314 9.28307,-7.37845 7.63018,-6.84726 13.65248,-13.91868 20.0097,-21.79421 8.86801,-10.98596 12.76496,-16.78375 20.99533,-28.27177 1.34005,-1.83079 -1.50289,-3.5567 -2.84295,-1.72592 v 0 c -8.21171,11.46596 -12.00028,17.11106 -20.83732,28.07332 -6.28889,7.80127 -12.04831,14.57266 -19.55898,21.3644 -2.77043,2.50523 -5.85751,4.70222 -8.78625,7.05331 -6.5469,3.5957 -8.58337,5.36699 -16.01701,6.9871 -11.4857,2.50319 -21.17478,-0.58516 -31.67701,-4.50097 -2.70942,-1.11024 -5.44275,-2.17328 -8.12824,-3.33074 -13.04117,-5.6208 -25.47709,-12.39897 -38.8892,-17.30632 -7.6101,-2.52338 -9.99586,-3.52628 -18.01274,-5.29096 -12.98995,-2.85938 -26.37072,-3.63847 -39.65945,-2.33459 -3.23861,0.49386 -6.51583,0.81084 -9.71588,1.48158 -10.434108,2.18699 -20.144108,6.6198 -28.161322,13.08265 -1.808554,1.45888 0.456849,3.78821 2.265404,2.32935 z" />
    <path
       style="fill:none;fill-opacity:1;fill-rule:nonzero;stroke:#000000;stroke-width:12.38226161;stroke-dasharray:none;stroke-opacity:1"
       id="path11-5-3"
       d="m 517.45888,382.88134 c 7.6418,-6.16304 16.90559,-10.37187 26.86007,-12.42682 3.06608,-0.63295 6.20409,-0.9309 9.30611,-1.39635 12.88235,-1.24238 25.85066,-0.47201 38.43683,2.31574 7.81093,1.73005 10.10659,2.69969 17.52164,5.16644 13.28434,4.88685 25.61445,11.59986 38.5421,17.17216 2.72448,1.17436 5.49706,2.25384 8.24559,3.38075 11.07114,4.15017 21.34369,7.28269 33.4631,4.74866 8.09691,-1.693 10.22781,-3.5478 17.35741,-7.39836 3.09437,-2.45948 6.35758,-4.75314 9.28307,-7.37845 7.63018,-6.84726 13.65248,-13.91868 20.0097,-21.79421 8.86801,-10.98596 12.76496,-16.78375 20.99533,-28.27177 1.34005,-1.83079 -1.50289,-3.5567 -2.84295,-1.72592 v 0 c -8.21171,11.46596 -12.00028,17.11106 -20.83732,28.07332 -6.28889,7.80127 -12.04831,14.57266 -19.55898,21.3644 -2.77043,2.50523 -5.85751,4.70222 -8.78625,7.05331 -6.5469,3.5957 -8.58337,5.36699 -16.01701,6.9871 -11.4857,2.50319 -21.17478,-0.58516 -31.67701,-4.50097 -2.70942,-1.11024 -5.44275,-2.17328 -8.12824,-3.33074 -13.04117,-5.6208 -25.47709,-12.39897 -38.8892,-17.30632 -7.6101,-2.52338 -9.99586,-3.52628 -18.01274,-5.29096 -12.98995,-2.85938 -26.37072,-3.63847 -39.65945,-2.33459 -3.23861,0.49386 -6.51583,0.81084 -9.71588,1.48158 -10.43411,2.18699 -20.14411,6.6198 -28.16132,13.08265 -1.80856,1.45888 0.45685,3.78821 2.2654,2.32935 z"
       inkscape:linked-fill="path15" />
    <text
       xml:space="preserve"
       style="font-style:normal;font-variant:normal;font-weight:normal;font-stretch:normal;font-size:85.3333px;font-family:'Tilt Warp';-inkscape-font-specification:'Tilt Warp';text-align:center;text-anchor:middle;fill:#23a964;fill-opacity:1;stroke:#23a964;stroke-width:2.51339;stroke-dasharray:none;stroke-opacity:1"
       x="137.92168"
       y="421.62924"
       id="text12-9"
       inkscape:label="We"><tspan
         sodipodi:role="line"
         id="tspan12-8"
         x="137.92168"
         y="421.62924"
         style="fill:#3f6a8a;fill-opacity:1;stroke:none">We</tspan></text>
  </g>
  <g
     inkscape:groupmode="layer"
     id="layer5-6-0"
     inkscape:label="lines"
     transform="translate(3.7890904,237.73774)">
    <text
       xml:space="preserve"
       style="font-size:85.3333px;font-family:'Noto Color Emoji';-inkscape-font-specification:'Noto Color Emoji';text-align:center;text-anchor:middle;fill:#6c6cc4;stroke-width:2.51339;stroke-dasharray:none"
       x="274.47491"
       y="423.31128"
       id="text1-9-9-5-1-3"
       inkscape:label="ave"><tspan
         sodipodi:role="line"
         id="tspan1-4-3-0-1-0"
         x="274.47491"
         y="423.31128"
         style="font-style:normal;font-variant:normal;font-weight:normal;font-stretch:normal;font-family:'Tilt Warp';-inkscape-font-specification:'Tilt Warp';fill:#4d5e72;fill-opacity:1;stroke-width:2.51339;stroke-dasharray:none">ave</tspan></text>
    <path
       style="fill:none;fill-opacity:1;stroke:#dda5b6;stroke-width:3.27614;stroke-dasharray:none;stroke-opacity:1"
       id="path11-5-4"
       d="m 81.455944,415.83168 c 7.641797,-6.16304 15.115097,-9.21729 25.069576,-11.27224 3.06608,-0.63295 13.30815,-4.21834 15.73176,-2.50113 14.70057,-2.91747 31.70413,1.18053 42.18708,3.57524 7.79931,1.78167 9.5938,5.55995 17.00885,8.0267 13.28434,4.88685 20.47149,8.61117 33.39914,14.18347 2.72448,1.17436 6.48502,3.90427 9.23355,5.03118 11.07114,4.15017 19.32711,6.90847 31.44652,4.37444 8.09691,-1.693 10.22781,-3.5478 17.35741,-7.39836 3.09437,-2.45948 6.35758,-4.75314 9.28307,-7.37845 7.63018,-6.84726 13.65248,-13.91868 20.0097,-21.79421 8.86801,-10.98596 12.76496,-16.78375 20.99533,-28.27177 1.34005,-1.83079 -1.50289,-3.5567 -2.84295,-1.72592 v 0 c -8.21171,11.46596 -12.00028,17.11106 -20.83732,28.07332 -6.28889,7.80127 -12.04831,14.57266 -19.55898,21.3644 -2.77043,2.50523 -5.85751,4.70222 -8.78625,7.05331 -6.5469,3.5957 -8.58337,5.36699 -16.01701,6.9871 -11.4857,2.50319 -21.17478,-0.58516 -31.67701,-4.50097 -2.70942,-1.11024 -5.44275,-2.17328 -8.12824,-3.33074 -13.04117,-5.6208 -25.47709,-12.39897 -38.8892,-17.30632 -7.6101,-2.52338 -9.99586,-3.52628 -18.01274,-5.29096 -12.98995,-2.85938 -26.37072,-3.63847 -39.65945,-2.33459 -3.23861,0.49386 -6.51583,0.81084 -9.71588,1.48158 -10.434108,2.18699 -20.144108,6.6198 -28.161322,13.08265 -1.808554,1.45888 -1.244189,1.33113 0.564366,-0.12773 z"
       sodipodi:nodetypes="cscscscscsscsssscscscscscc" />
    <text
       xml:space="preserve"
       style="font-style:normal;font-variant:normal;font-weight:normal;font-stretch:normal;font-size:85.3333px;font-family:'Tilt Warp';-inkscape-font-specification:'Tilt Warp';text-align:center;text-anchor:middle;fill:#23a964;fill-opacity:1;stroke:#23a964;stroke-width:2.51339;stroke-dasharray:none;stroke-opacity:1"
       x="137.92168"
       y="421.62924"
       id="text12-9-4"
       inkscape:label="We"><tspan
         sodipodi:role="line"
         id="tspan12-8-4"
         x="137.92168"
         y="421.62924"
         style="fill:#3f6a8a;fill-opacity:1;stroke:none">We</tspan></text>
  </g>
</svg>
