<?xml version="1.0" encoding="UTF-8" standalone="no"?>
<!-- Created with Inkscape (http://www.inkscape.org/) -->

<svg
   width="200mm"
   height="200mm"
   viewBox="0 0 200 200"
   version="1.1"
   id="svg1"
   inkscape:version="1.3 (0e150ed6c4, 2023-07-21)"
   sodipodi:docname="logo.svg"
   inkscape:export-filename="logo.png"
   inkscape:export-xdpi="16.26"
   inkscape:export-ydpi="16.26"
   xmlns:inkscape="http://www.inkscape.org/namespaces/inkscape"
   xmlns:sodipodi="http://sodipodi.sourceforge.net/DTD/sodipodi-0.dtd"
   xmlns="http://www.w3.org/2000/svg"
   xmlns:svg="http://www.w3.org/2000/svg">
  <sodipodi:namedview
     id="namedview1"
     pagecolor="#505050"
     bordercolor="#ffffff"
     borderopacity="1"
     inkscape:showpageshadow="0"
     inkscape:pageopacity="0"
     inkscape:pagecheckerboard="1"
     inkscape:deskcolor="#505050"
     inkscape:document-units="mm"
     inkscape:zoom="0.86306805"
     inkscape:cx="268.80847"
     inkscape:cy="414.21994"
     inkscape:window-width="507"
     inkscape:window-height="1029"
     inkscape:window-x="1399"
     inkscape:window-y="12"
     inkscape:window-maximized="1"
     inkscape:current-layer="layer1" />
  <defs
     id="defs1">
    <rect
       x="257.88332"
       y="303.83655"
       width="261.9926"
       height="251.16178"
       id="rect1" />
  </defs>
  <g
     inkscape:label="Layer 1"
     inkscape:groupmode="layer"
     id="layer1">
    <circle
       style="fill:#282828;stroke-width:0.264583;fill-opacity:1"
       id="path1"
       cx="98.583183"
       cy="100.42748"
       r="92.087318" />
    <path
       style="fill:#ff2a6d;fill-opacity:1;stroke-width:0.264583"
       id="path10"
       d="m 161.13953,118.41263 c -0.76532,-0.34605 -1.51736,-0.73539 -2.26968,-1.11551 -1.65947,-0.83269 -3.3295,-1.64209 -5.01406,-2.42324 -2.23557,-1.08604 -4.53142,-2.03339 -6.87515,-2.85747 -2.95623,-0.96884 -5.94969,-1.81634 -8.92224,-2.73266 -3.28487,-0.97779 -6.56201,-1.97715 -9.86281,-2.90052 -3.78529,-1.0087 -7.6101,-1.86032 -11.42713,-2.7385 -4.20596,-0.90201 -8.40794,-1.82379 -12.60441,-2.7691 C 99.600246,99.792209 95.017872,98.790597 90.41264,97.899536 85.369674,96.940324 80.319009,96.024506 75.268983,95.103131 70.145277,94.149054 65.017636,93.220065 59.93675,92.056179 55.578999,91.019319 51.266661,89.811134 46.994746,88.466558 43.394857,87.328776 39.858153,86.003568 36.351884,84.606753 33.759693,83.598847 31.238788,82.42687 28.828235,81.040191 27.030664,80.01623 25.483998,78.646506 24.050857,77.169184 c -0.839554,-1.005327 -1.710355,-2.081303 -2.051802,-3.371699 -0.07117,-0.446427 -0.244326,-0.974569 -0.05868,-1.422213 0.0053,-0.01273 0.144713,-0.0725 0.152973,-0.0762 0.02425,0.0079 0.05276,0.03949 0.07274,0.02365 0.139341,-0.110434 0.245513,-0.257511 0.375449,-0.37887 0.187337,-0.174974 0.379142,-0.345334 0.575875,-0.509669 0.757084,-0.632413 1.560737,-1.202214 2.366637,-1.769505 0.705717,-0.499393 1.463679,-0.912227 2.225444,-1.317069 5.835803,-3.0616 1.506045,-11.314668 -4.329756,-8.253068 v 0 c -1.171729,0.610028 -2.325416,1.241819 -3.392335,2.027867 -1.028467,0.771027 -2.064285,1.540801 -3.043252,2.374855 -0.77864,0.663382 -1.701186,1.487858 -2.333579,2.291995 -0.423682,0.538747 -0.770344,1.133835 -1.155516,1.700752 -0.219835,0.546595 -0.489422,1.075725 -0.659504,1.639787 -0.692642,2.297076 -0.370802,4.711764 0.352034,6.950901 0.179856,0.449786 0.337571,0.909068 0.539567,1.349356 0.919022,2.003163 2.31817,3.750953 3.816191,5.345687 2.088588,2.013265 4.32106,3.901019 6.882545,5.291899 2.839412,1.524701 5.788024,2.820249 8.817075,3.923461 3.729127,1.320091 7.468891,2.611459 11.245225,3.791255 4.51117,1.345549 9.06654,2.540764 13.682191,3.475334 5.191038,1.09923 10.382181,2.19566 15.606512,3.1281 4.992941,0.93617 9.996574,1.81877 14.975657,2.82558 4.512823,0.97497 9.006483,2.03317 13.506092,3.06606 4.18583,0.99523 8.3774,1.96229 12.57482,2.90701 3.67619,0.85477 7.34023,1.76939 10.97117,2.80074 3.22681,0.92178 6.43307,1.91688 9.6418,2.89941 2.81735,0.86891 5.61981,1.78677 8.38743,2.80423 2.01638,0.77934 4.01957,1.59631 5.95693,2.55874 1.53331,0.79899 3.04649,1.63881 4.53979,2.5099 0.56318,0.33093 1.11551,0.70239 1.62141,1.11809 0.006,0.005 -0.0144,0.005 -0.0216,0.007 5.9893,3.71166 11.23838,-4.75847 5.24909,-8.47013 z" />
    <text
       xml:space="preserve"
       transform="matrix(2.1349384,0,0,2.1349384,-732.57954,-649.2746)"
       id="text1"
       style="font-size:85.3333px;font-family:'Noto Color Emoji';-inkscape-font-specification:'Noto Color Emoji';text-align:center;white-space:pre;shape-inside:url(#rect1);fill:#31db7b;fill-opacity:1"
       x="0"
       y="0"><tspan
         x="350.86289"
         y="382.76924"
         id="tspan4"><tspan
           style="font-family:'Tilt Warp';-inkscape-font-specification:'Tilt Warp'"
           id="tspan1">W</tspan></tspan></text>
    <path
       style="fill:#ff2a6d;stroke-width:0.254616"
       id="path9"
       d="m 29.572702,169.41286 c 1.07129,-0.65213 2.314521,-0.96254 3.505409,-1.2395 1.814842,-0.42207 3.073972,-0.60318 4.959068,-0.92509 4.336754,-0.65781 8.696041,-1.13819 13.05555,-1.58032 1.900622,-0.19276 3.806991,-0.3211 5.704647,-0.54535 2.358495,-0.27871 4.705812,-0.6591 7.061609,-0.96327 2.556418,-0.33008 5.11649,-0.62629 7.674734,-0.93943 2.619098,-0.30212 5.242075,-0.56731 7.857296,-0.90634 2.777796,-0.3601 5.547538,-0.7893 8.320451,-1.1909 4.826808,-0.69905 11.917487,-1.73718 16.743274,-2.50293 6.38105,-1.01254 9.76112,-1.62415 16.09213,-2.72536 6.95047,-1.30471 13.9295,-2.49292 20.82205,-4.13357 1.97812,-0.47086 3.95753,-0.9466 5.90684,-1.54134 4.90998,-1.49805 5.4352,-1.93777 9.95852,-4.07886 1.31938,-0.99459 2.73421,-1.85584 3.95815,-2.98379 2.23762,-2.06211 3.85742,-4.36404 5.02804,-7.27703 0.50994,-1.26895 0.93334,-2.60498 1.0984,-3.97672 0.45448,-3.77703 -0.21132,-4.95416 -1.15363,-8.43585 -2.5633,-4.8885 -1.09964,-2.59475 -4.38092,-6.88876 -3.55454,-4.60405 -9.58436,0.82409 -6.0298,5.42814 v 0 c 2.12064,2.70469 1.19954,1.32609 2.80687,4.10146 0.26454,0.75108 1.05933,2.73283 1.05455,3.66483 -0.004,0.75957 -0.17587,1.51415 -0.37652,2.24218 -0.87923,3.19016 -2.745,5.07113 -5.0809,7.11589 -3.70449,2.06426 -4.45786,2.66564 -8.57325,4.15156 -1.83764,0.66351 -3.7142,1.19703 -5.5891,1.72523 -6.73663,1.89786 -13.58542,3.30643 -20.41196,4.75901 -2.5993,0.50047 -5.19438,1.0272 -7.79791,1.50142 -13.526819,2.46385 -27.141434,4.35917 -40.808353,5.63819 -2.546136,0.21078 -5.089451,0.46597 -7.638406,0.63234 -2.330812,0.15214 -4.666083,0.21016 -6.998811,0.32303 -1.905884,0.0922 -3.810839,0.20664 -5.716989,0.29222 -4.492065,0.20171 -8.988192,0.29516 -13.478236,0.55177 -3.753676,0.28747 -7.581972,0.47821 -11.207333,1.65995 -5.924433,2.77514 -2.289902,11.82233 3.63453,9.04719 z" />
    <rect
       style="fill:#31db7b;stroke-width:0.171959;fill-opacity:1"
       id="rect9"
       width="9.84408"
       height="27.339672"
       x="171.4769"
       y="71.554535"
       transform="rotate(12.2)" />
    <path
       style="display:none;fill:#ff2a6d;fill-opacity:1;stroke-width:0.264583"
       id="path11"
       d="m 26.678226,69.636253 c 0.07345,-0.06074 0.310888,-0.212043 0.220358,-0.182224 -0.185494,0.06109 -0.339545,0.193588 -0.515036,0.279281 -0.03631,0.01773 0.06092,-0.0538 0.09564,-0.07449 0.09485,-0.05652 0.192074,-0.10941 0.291952,-0.15649 0.812244,-0.382871 0.823036,-0.361511 1.736582,-0.696817 2.90712,-0.98583 5.848762,-1.870671 8.809733,-2.679274 3.396985,-0.919144 6.829724,-1.730545 10.309421,-2.271371 0.868709,-0.135017 1.742326,-0.236289 2.613488,-0.354434 5.551254,-0.64235 11.116111,-1.193241 16.692072,-1.565605 6.356599,-0.362913 12.720127,-0.543576 19.085872,-0.621922 5.930937,-0.108913 11.86271,-0.06233 17.794142,-0.108606 4.08128,0.05765 8.16392,0.04864 12.24481,0.135736 2.0785,0.04436 4.15624,0.119507 6.23467,0.1669 6.69373,0.120663 13.373,0.589354 20.04145,1.157904 5.33671,0.456882 10.65138,1.121042 15.9532,1.875157 3.7164,0.518406 7.42307,1.095968 11.11761,1.751912 1.93832,0.344088 0.99632,0.168193 2.82648,0.525098 6.36253,1.075235 7.88314,-7.922737 1.52061,-8.997971 v 0 c -1.95665,-0.283877 -0.96736,-0.144558 -2.96796,-0.417426 -3.81363,-0.509942 -7.63331,-0.975987 -11.46042,-1.373137 -1.19268,-0.121436 -3.64906,-0.374978 -4.81198,-0.478869 -3.8464,-0.343628 -7.7035,-0.549921 -11.55467,-0.829699 -6.78823,-0.486508 -13.58203,-0.867725 -20.37866,-1.217015 -6.23145,-0.300781 -12.47136,-0.361336 -18.70938,-0.408979 -2.09749,-0.04481 -3.930472,-0.09864 -6.025278,-0.08643 -3.996063,0.02331 -7.991258,0.194874 -11.986916,0.246259 -6.453839,0.180104 -12.908955,0.324733 -19.357885,0.646199 -1.066268,0.04447 -2.132433,0.09143 -3.198802,0.133395 -1.037119,0.04081 -2.075524,0.05375 -3.111638,0.114959 -0.92484,0.05464 -1.846815,0.150342 -2.769618,0.232487 -2.745894,0.244438 -5.489488,0.520956 -8.225602,0.858454 -1.828827,0.216725 -3.662172,0.396099 -5.488416,0.633589 -1.285343,0.167151 -3.42913,0.51253 -4.721106,0.775063 -0.663332,0.134789 -1.319501,0.302702 -1.979001,0.455131 -0.649896,0.150206 -1.299456,0.301852 -1.949183,0.452781 -3.086481,0.787959 -6.186694,1.520627 -9.266034,2.336089 -0.372809,0.09334 -0.744338,0.191942 -1.118425,0.280016 -0.832167,0.195924 -1.714276,0.326959 -2.50239,0.678659 -0.343147,0.15313 -0.666067,0.348353 -1.004525,0.511585 -0.0089,0.0043 0.0032,-0.01961 0.0047,-0.0294 -5.871461,3.896233 -0.361354,12.199733 5.510107,8.303498 z" />
    <path
       style="display:inline;fill:#ff2a6d;fill-opacity:1;stroke-width:0.264583"
       id="path12"
       d="m 21.475658,73.576777 c 0.263695,-0.178189 0.43878,-0.444114 0.656855,-0.667837 0.08782,-0.0901 0.181344,-0.174469 0.272016,-0.261702 0.85188,-0.691455 1.781782,-1.277893 2.651122,-1.946939 1.028663,-0.750531 2.082447,-1.466716 3.15035,-2.159995 0.175919,-0.121672 0.348189,-0.248793 0.527757,-0.365017 0.567713,-0.367451 1.16428,-0.689705 1.748588,-1.029165 0.98437,-0.571884 0.20188,-0.151519 1.322356,-0.726213 0.860711,-0.418647 1.75451,-0.7625 2.641881,-1.118883 0.323186,-0.129799 0.642845,-0.268669 0.969166,-0.390372 0.701884,-0.261776 1.415052,-0.492265 2.121,-0.74287 2.14334,-0.705001 4.315886,-1.321732 6.508771,-1.85206 2.010204,-0.484335 4.041617,-0.868812 6.084536,-1.184852 1.508593,-0.225491 3.028606,-0.356343 4.551032,-0.438494 0.674798,-0.03141 1.350025,-0.02915 2.025274,-0.02466 6.598576,-0.371715 6.072891,-9.703511 -0.525682,-9.331796 v 0 c -0.820944,0.09093 -1.64138,0.186677 -2.459316,0.302065 -1.719048,0.253074 -3.417498,0.617233 -5.120732,0.958582 -0.376404,0.07578 -1.77564,0.355677 -2.134026,0.435296 -1.502235,0.333732 -2.993991,0.718679 -4.488818,1.083114 -0.795821,0.208417 -1.595871,0.400616 -2.390566,0.613293 -1.576371,0.421871 -3.124279,0.942814 -4.681013,1.429885 -2.780221,0.846289 0.368363,-0.125407 -2.307191,0.74036 -0.393014,0.127175 -0.791771,0.236321 -1.183796,0.366519 -1.063768,0.353293 -2.100815,0.782143 -3.151936,1.169935 -0.443952,0.174887 -1.584986,0.617157 -2.021936,0.817904 -1.028605,0.472572 -1.969031,1.110475 -2.965299,1.642724 -1.156101,0.741116 -2.306433,1.490493 -3.457091,2.240147 -0.887595,0.551665 -1.740694,1.162003 -2.68188,1.624259 -0.325292,0.148219 -0.646138,0.302366 -0.963065,0.467807 -0.06129,0.032 -0.118605,0.07227 -0.182659,0.0983 -0.01082,0.0044 -0.03874,-7.4e-5 -0.03343,-0.01048 0.01836,-0.03596 0.0557,-0.05846 0.08354,-0.08769 -5.903507,3.842549 -0.469324,12.19137 5.434183,8.348821 z" />
  </g>
</svg>
