<?xml version="1.0" encoding="UTF-8" standalone="no"?>
<!DOCTYPE svg PUBLIC "-//W3C//DTD SVG 1.1//EN" "http://www.w3.org/Graphics/SVG/1.1/DTD/svg11.dtd">
<svg width="100%" height="100%" viewBox="0 0 567 567" version="1.1" xmlns="http://www.w3.org/2000/svg" xmlns:xlink="http://www.w3.org/1999/xlink" xml:space="preserve" xmlns:serif="http://www.serif.com/" style="fill-rule:evenodd;clip-rule:evenodd;stroke-linejoin:round;stroke-miterlimit:2;">
    <g id="Layer-1" serif:id="Layer 1">
        <circle id="path1" cx="279.448" cy="284.676" r="261.035" style="fill:rgb(40,40,40);"/>
        <g transform="matrix(2.13494,0,0,2.13494,46.7465,475.977)">
            <path d="M11.99,-126.308C9.203,-139.104 6.416,-151.83 3.628,-164.485L45.475,-164.485C47.338,-156.144 49.2,-147.742 51.063,-139.279C48.847,-138.422 46.674,-137.449 44.438,-136.644C41.476,-135.579 38.434,-134.735 35.453,-133.721C32.945,-132.867 30.534,-131.741 28.035,-130.86C24.894,-129.752 21.59,-129.245 18.411,-128.289C16.264,-127.643 14.157,-126.879 11.99,-126.308Z" style="fill:rgb(49,219,123);fill-rule:nonzero;"/>
        </g>
        <path id="path10" d="M456.773,335.658C454.604,334.677 452.472,333.573 450.34,332.496C445.636,330.135 440.902,327.841 436.127,325.627C429.79,322.548 423.282,319.863 416.638,317.527C408.258,314.781 399.773,312.378 391.347,309.781C382.035,307.009 372.746,304.176 363.389,301.559C352.659,298.699 341.817,296.285 330.997,293.796C319.075,291.239 307.164,288.626 295.268,285.947C282.331,282.876 269.342,280.036 256.288,277.51C241.993,274.791 227.676,272.195 213.361,269.584C198.837,266.879 184.302,264.246 169.899,260.947C157.547,258.008 145.323,254.583 133.213,250.771C123.009,247.546 112.984,243.79 103.045,239.83C95.697,236.973 88.551,233.651 81.718,229.72C76.622,226.818 72.238,222.935 68.176,218.747C65.796,215.898 63.327,212.848 62.36,209.19C62.158,207.924 61.804,206.476 62.193,205.158C62.874,202.854 65.784,199.687 69.349,196.876C73.048,193.96 96.806,183.359 114.782,176.762C136.467,168.802 155.426,170.739 165.587,169.108C183.736,166.195 183.729,145.383 160.893,143.418C149.188,142.411 123.422,147.174 101.054,155.148C77.841,163.423 58.197,174.96 56.657,176.095C53.742,178.281 50.806,180.463 48.031,182.827C46.249,184.345 44.202,186.16 42.536,188.003C42.138,188.443 41.761,188.884 41.416,189.324C40.215,190.851 39.232,192.538 38.14,194.145C37.517,195.694 36.753,197.194 36.271,198.793C34.307,205.305 35.22,212.149 37.269,218.496C37.779,219.771 38.226,221.073 38.798,222.321C41.403,228 45.369,232.954 49.616,237.475C55.536,243.181 61.864,248.533 69.125,252.475C77.174,256.797 85.532,260.47 94.119,263.597C104.689,267.339 115.29,270.999 125.995,274.344C138.782,278.158 151.695,281.546 164.779,284.195C179.494,287.311 194.209,290.419 209.018,293.062C223.171,295.716 237.355,298.218 251.469,301.072C264.261,303.835 276.999,306.835 289.754,309.763C301.619,312.584 313.501,315.325 325.399,318.003C335.819,320.426 346.206,323.019 356.498,325.942C365.645,328.555 374.734,331.376 383.829,334.161C391.815,336.624 399.759,339.226 407.605,342.11C413.32,344.319 418.999,346.635 424.49,349.363C428.837,351.628 433.126,354.009 437.359,356.478C438.956,357.416 440.521,358.469 441.955,359.647C441.972,359.661 444.599,349.362 444.579,349.368C461.556,359.889 473.751,346.178 456.773,335.657L456.773,335.658Z" style="fill:rgb(255,42,109);fill-rule:nonzero;"/>
        <g transform="matrix(2.13494,0,0,2.13494,46.7465,475.977)">
            <path d="M51.063,-139.279C52.909,-130.889 54.756,-122.44 56.602,-113.93C60.311,-96.836 63.94,-79.904 67.487,-63.133C71.196,-79.904 74.945,-96.836 78.735,-113.93C82.525,-131.024 86.193,-147.875 89.741,-164.485L127.96,-164.485C131.83,-147.875 135.7,-131.104 139.57,-114.172C143.441,-97.24 147.311,-80.388 151.181,-63.617C154.89,-80.388 158.559,-97.24 162.187,-114.172C165.815,-131.104 169.403,-147.875 172.951,-164.485L211.895,-164.485C205.929,-137.393 199.962,-109.979 193.996,-82.242C188.029,-54.506 182.062,-27.092 176.096,0L127.718,0C124.331,-14.997 120.864,-30.115 117.316,-45.354C113.769,-60.593 110.302,-75.711 106.915,-90.709C103.69,-75.711 100.384,-60.593 96.998,-45.354C93.611,-30.115 90.305,-14.997 87.08,0L39.428,0C33.461,-27.092 27.495,-54.506 21.528,-82.242C18.349,-97.023 15.169,-111.711 11.99,-126.308C14.255,-128.384 15.808,-129.778 17.954,-130.424C21.134,-131.38 24.205,-133.095 27.346,-134.203C29.845,-135.084 32.722,-135.516 35.23,-136.37C38.211,-137.384 41.128,-138.216 44.09,-139.281C46.325,-140.086 48.732,-140.664 51.063,-139.279Z" style="fill:rgb(49,219,123);fill-rule:nonzero;"/>
        </g>
        <path id="path9" d="M83.828,480.225C86.865,478.377 102.478,475.002 107.822,474.09C120.115,472.225 132.472,470.863 144.83,469.61C150.217,469.064 155.621,468.7 161,468.064C167.686,467.274 174.34,466.196 181.018,465.334C188.264,464.398 195.521,463.558 202.773,462.671C210.197,461.814 217.632,461.062 225.045,460.101C232.919,459.081 240.771,457.864 248.631,456.726C262.313,454.744 282.413,451.801 296.092,449.631C314.18,446.761 323.761,445.027 341.708,441.905C361.41,438.207 381.193,434.839 400.731,430.188C406.338,428.853 411.949,427.505 417.475,425.819C431.393,421.573 450.707,411.619 456.923,405.799C463.22,399.904 467.858,393.428 471.176,385.171C472.622,381.574 473.822,377.787 474.29,373.898C474.96,368.326 473.407,359.807 470.255,351.468C467.352,343.785 463.061,336.295 458.601,330.459C448.525,317.408 431.433,332.795 441.509,345.845C447.52,353.512 455.573,363.445 451.387,374.216C449.834,378.212 443.526,389.333 432.164,396.686C418.666,405.42 399.725,410.233 396.84,411.046C377.744,416.425 358.33,420.418 338.979,424.536C331.611,425.954 324.255,427.447 316.875,428.792C278.531,435.776 239.938,441.148 201.197,444.774C193.98,445.371 186.771,446.095 179.545,446.566C172.938,446.998 166.318,447.162 159.706,447.482C154.304,447.743 148.904,448.068 143.5,448.31C130.767,448.882 118.022,449.147 105.294,449.874C94.654,450.689 83.802,451.23 73.526,454.58C56.732,462.446 67.034,488.092 83.828,480.225Z" style="fill:rgb(255,42,109);fill-rule:nonzero;"/>
        <g id="rect9" transform="matrix(0.977416,0.211325,-0.211325,0.977416,0,0)">
            <rect x="486.076" y="202.832" width="27.904" height="77.498" style="fill:rgb(49,219,123);"/>
        </g>
    </g>
</svg>
